<svg width="8" height="8" viewBox="0 0 8 8" fill="none" xmlns="http://www.w3.org/2000/svg">
<path d="M2.41692 6.91178C2.28534 6.90579 2.1604 6.85183 2.06535 6.75994L0.406928 5.18991C0.35936 5.14419 0.321493 5.08922 0.295621 5.02832C0.269749 4.96743 0.256409 4.90187 0.256409 4.83563C0.256409 4.76938 0.269749 4.70383 0.295621 4.64293C0.321493 4.58203 0.35936 4.52706 0.406928 4.48134C0.452298 4.4334 0.506849 4.39524 0.567279 4.36917C0.62771 4.3431 0.692762 4.32965 0.758497 4.32965C0.824233 4.32965 0.889285 4.3431 0.949715 4.36917C1.01015 4.39524 1.0647 4.4334 1.11007 4.48134L2.41692 5.74769L6.88995 1.24006C6.93532 1.19213 6.98987 1.15397 7.0503 1.12789C7.11073 1.10182 7.17579 1.08838 7.24152 1.08838C7.30726 1.08838 7.37231 1.10182 7.43274 1.12789C7.49317 1.15397 7.54772 1.19213 7.59309 1.24006C7.64066 1.28578 7.67853 1.34076 7.7044 1.40165C7.73027 1.46255 7.74361 1.52811 7.74361 1.59435C7.74361 1.66059 7.73027 1.72615 7.7044 1.78705C7.67853 1.84794 7.64066 1.90292 7.59309 1.94864L2.76849 6.75994C2.72429 6.80939 2.66996 6.84857 2.60926 6.87479C2.54856 6.90101 2.48294 6.91363 2.41692 6.91178Z" fill="rgba(0,0,0,0.65)"/>
</svg>
