<svg width="12" height="12" viewBox="0 0 12 12" fill="none" xmlns="http://www.w3.org/2000/svg">
<path fill-rule="evenodd" clip-rule="evenodd" d="M0.261733 0.261736C0.610705 -0.0872432 1.1765 -0.0872462 1.52548 0.261733L6.00003 4.73624L10.4745 0.261736C10.8235 -0.0872432 11.3893 -0.0872462 11.7383 0.261733C12.0872 0.610705 12.0872 1.1765 11.7383 1.52548L7.26378 6L11.7383 10.4745C12.0872 10.8235 12.0872 11.3893 11.7383 11.7383C11.3893 12.0872 10.8235 12.0872 10.4745 11.7383L6.00003 7.26375L1.52548 11.7383C1.1765 12.0872 0.610705 12.0872 0.261733 11.7383C-0.0872462 11.3893 -0.0872432 10.8235 0.261736 10.4745L4.73624 6L0.261736 1.52551C-0.0872432 1.17654 -0.0872462 0.610705 0.261733 0.261736Z" fill="#272B32"/>
</svg>
