<svg width="54" height="18" viewBox="0 0 54 18" fill="none" xmlns="http://www.w3.org/2000/svg">
<path d="M8.08255 2.49073C8.4307 1.68785 9.5693 1.68785 9.91745 2.49073L11.2091 5.46946C11.354 5.80361 11.6692 6.03256 12.0317 6.06711L15.2638 6.37509C16.135 6.45811 16.4868 7.54098 15.8308 8.1202L13.397 10.2691C13.124 10.5102 13.0037 10.8806 13.0828 11.2362L13.7887 14.4052C13.979 15.2594 13.0578 15.9287 12.3042 15.4838L9.50839 13.8331C9.19475 13.648 8.80525 13.648 8.49161 13.8331L5.69576 15.4838C4.94218 15.9287 4.02104 15.2594 4.21129 14.4052L4.91715 11.2362C4.99634 10.8806 4.87597 10.5102 4.60295 10.2691L2.16916 8.12019C1.51316 7.54097 1.86501 6.45811 2.73618 6.37509L5.96827 6.06711C6.33085 6.03256 6.64597 5.80361 6.79087 5.46946L8.08255 2.49073Z" fill="#DCDFE0"/>
<path d="M26.0825 2.49073C26.4307 1.68785 27.5693 1.68785 27.9175 2.49073L29.2091 5.46946C29.354 5.80361 29.6692 6.03256 30.0317 6.06711L33.2638 6.37509C34.135 6.45811 34.4868 7.54098 33.8308 8.1202L31.397 10.2691C31.124 10.5102 31.0037 10.8806 31.0828 11.2362L31.7887 14.4052C31.979 15.2594 31.0578 15.9287 30.3042 15.4838L27.5084 13.8331C27.1948 13.648 26.8052 13.648 26.4916 13.8331L23.6958 15.4838C22.9422 15.9287 22.021 15.2594 22.2113 14.4052L22.9172 11.2362C22.9963 10.8806 22.876 10.5102 22.603 10.2691L20.1692 8.12019C19.5132 7.54097 19.865 6.45811 20.7362 6.37509L23.9683 6.06711C24.3308 6.03256 24.646 5.80361 24.7909 5.46946L26.0825 2.49073Z" fill="#FDC535"/>
<mask id="mask0_0_3" style="mask-type:alpha" maskUnits="userSpaceOnUse" x="19" y="1" width="16" height="15">
<path d="M26.0825 2.49073C26.4307 1.68785 27.5693 1.68785 27.9175 2.49073L29.2091 5.46946C29.354 5.80361 29.6692 6.03256 30.0317 6.06711L33.2638 6.37509C34.135 6.45811 34.4868 7.54098 33.8308 8.1202L31.397 10.2691C31.124 10.5102 31.0037 10.8806 31.0828 11.2362L31.7887 14.4052C31.979 15.2594 31.0578 15.9287 30.3042 15.4838L27.5084 13.8331C27.1948 13.648 26.8052 13.648 26.4916 13.8331L23.6958 15.4838C22.9422 15.9287 22.021 15.2594 22.2113 14.4052L22.9172 11.2362C22.9963 10.8806 22.876 10.5102 22.603 10.2691L20.1692 8.12019C19.5132 7.54097 19.865 6.45811 20.7362 6.37509L23.9683 6.06711C24.3308 6.03256 24.646 5.80361 24.7909 5.46946L26.0825 2.49073Z" fill="#FDC535"/>
</mask>
<g mask="url(#mask0_0_3)">
<rect x="27" y="1" width="8" height="16" fill="#DCDFE0"/>
</g>
<path d="M44.0825 2.49073C44.4307 1.68785 45.5693 1.68785 45.9175 2.49073L47.2091 5.46946C47.354 5.80361 47.6692 6.03256 48.0317 6.06711L51.2638 6.37509C52.135 6.45811 52.4868 7.54098 51.8308 8.1202L49.397 10.2691C49.124 10.5102 49.0037 10.8806 49.0828 11.2362L49.7887 14.4052C49.979 15.2594 49.0578 15.9287 48.3042 15.4838L45.5084 13.8331C45.1948 13.648 44.8052 13.648 44.4916 13.8331L41.6958 15.4838C40.9422 15.9287 40.021 15.2594 40.2113 14.4052L40.9172 11.2362C40.9963 10.8806 40.876 10.5102 40.603 10.2691L38.1692 8.12019C37.5132 7.54097 37.865 6.45811 38.7362 6.37509L41.9683 6.06711C42.3308 6.03256 42.646 5.80361 42.7909 5.46946L44.0825 2.49073Z" fill="#FDC535"/>
</svg>
